<svg xmlns="http://www.w3.org/2000/svg" xmlns:xlink="http://www.w3.org/1999/xlink" version="1.1" x="0px" y="0px" viewBox="0 0 100 125" style="enable-background:new 0 0 100 100;" xml:space="preserve"><g><g><path d="M63.7,18.5c3.2-0.6,6.5-1.1,9.7-1.4c2-0.2,4.1,0.4,5.7,1.6c1.9,1.4,3.2,3.6,3.6,6c1.6-0.1,3.2,0.3,4.6,1.1    c2,1.1,3.4,3.1,4.1,5.2c0.3,0.8,0.4,1.7,0.4,2.6v23.9c-0.1,1.3-0.3,2.6-0.9,3.8c-0.9,2.1-2.6,3.8-4.8,4.7    c-0.7,0.3-1.5,0.5-2.2,0.6c-5.7,0.8-11.3,1.8-17,2.7c-0.3-1.1-0.2-2.2-0.2-3.3c0-0.4,0.1-0.9,0.2-1.3c5.1-0.9,10.3-1.7,15.4-2.5    c0.8-0.1,1.7-0.2,2.4-0.6c1.5-0.8,2.4-2.5,2.4-4.1c0-7.4,0-14.8,0-22.2c0-1,0.1-2.1-0.2-3c-0.4-1.5-1.7-2.8-3.2-3    c-0.7-0.1-1.5,0-2.2,0.1c-5.8,0.7-11.5,1.8-17.3,2.9c-3.2,0.7-6.4,1.3-9.6,2.1c-6.2,1.3-12.4,2.4-18.7,3c-3.1,0.3-6.3,0.5-9.4,0.4    c-0.9,0-1.8,0.4-2.5,1c-1,0.9-1.6,2.3-1.6,3.6c0,7.1,0,14.2,0,21.3c0,0.5,0,1,0.1,1.4c0.2,1.2,0.8,2.3,1.7,3    c0.6,0.5,1.3,0.8,2.1,0.8c3.1,0.2,6.3,0.2,9.4,0.1c3.3-0.2,6.6-0.5,9.8-0.9c0.1,1.5,0.1,3.1-0.1,4.6c-5.9,0.7-11.8,1.2-17.7,0.9    c-1.1-0.1-2.3-0.1-3.4-0.4c-1.9-0.5-3.6-1.8-4.7-3.4c-0.8-1.1-1.3-2.5-1.6-3.8c-0.9-0.1-1.7-0.1-2.6-0.3c-2.3-0.6-4.2-2.2-5.3-4.3    c-0.7-1.3-1.1-2.9-1.2-4.4V34.7c0-0.5,0.1-1.1,0.1-1.6c0.4-2.2,1.6-4.3,3.3-5.8c1.4-1.1,3.3-1.8,5.1-1.8c4.3,0.1,8.7-0.2,13-0.8    c4.8-0.6,9.6-1.5,14.3-2.5C51.2,20.9,57.4,19.6,63.7,18.5z M64,23c-6.5,1.1-12.9,2.5-19.3,3.9c-5.2,1.1-10.4,2-15.7,2.6    c-3.6,0.4-7.1,0.6-10.7,0.6c-0.5,0-0.9,0-1.4,0.1c-1.4,0.4-2.5,1.6-2.9,3c-0.3,1-0.2,2-0.2,3c0,6.5,0,13.1,0,19.6    c0,0.6,0,1.2,0.1,1.8c0.2,1.2,0.9,2.4,2,3.1c0.7,0.4,1.5,0.6,2.3,0.6c0-6.4,0-12.8,0-19.1c0-2.6,1.1-5.2,3.1-7    c1.5-1.3,3.4-2.1,5.4-2.1c4.1,0.1,8.2-0.2,12.3-0.7c3.8-0.5,7.5-1.1,11.2-1.8c2.9-0.6,5.9-1.3,8.8-1.9c6.4-1.4,12.8-2.6,19.3-3.6    c-0.2-1.2-0.9-2.2-1.8-2.9c-0.7-0.5-1.7-0.8-2.5-0.7C70.5,21.9,67.3,22.5,64,23z"/></g><path d="M81.4,34.1c0.6-0.1,1.3,0,1.7,0.5c0.5,0.7,0.3,1.8-0.4,2.2c-0.2,0.2-0.5,0.2-0.8,0.2c-3.2,0.5-6.4,0.9-9.5,1.5   c-0.5,0.1-1,0-1.4-0.3c-0.4-0.3-0.6-0.9-0.5-1.4c0.1-0.6,0.5-1.1,1.1-1.2C74.8,35,78.1,34.6,81.4,34.1z"/><g><path d="M55,42.4c2.5-0.3,5.1,0.6,6.9,2.3c0.9,0.9,1.7,2.1,2.1,3.3c0.6,1.7,0.6,3.6,0,5.3c-0.6,1.9-2,3.6-3.8,4.6    c-1.6,0.9-3.5,1.3-5.3,1c-2.5-0.3-4.8-1.8-6-4c-1.5-2.4-1.6-5.6-0.3-8.1C49.8,44.5,52.3,42.8,55,42.4z M55.3,45.4    c-2,0.3-3.8,1.7-4.4,3.6c-0.4,1.2-0.4,2.6,0.1,3.8c0.5,1.2,1.3,2.1,2.4,2.7c1,0.6,2.2,0.8,3.3,0.6c1.1-0.1,2.1-0.6,2.9-1.3    c0.9-0.8,1.5-1.9,1.8-3c0.2-1.2,0.1-2.5-0.5-3.5c-0.5-1.1-1.4-1.9-2.5-2.5C57.5,45.4,56.4,45.2,55.3,45.4z"/></g><path d="M37.9,61.9c0.4,0,0.8-0.1,1.3-0.1c0.9,0.1,1.5,1.2,1.2,2c-0.2,0.6-0.8,1-1.4,1c-3.3,0.2-6.6,0.3-9.9,0.2   c-0.9,0-1.6-1-1.4-1.9c0.2-0.7,0.8-1.2,1.5-1.2C32,62.1,35,62.1,37.9,61.9z"/><path d="M54.8,63.5c0.3-0.7,1-1.1,1.7-1.1c0.8,0.1,1.5,0.8,1.5,1.7c0,2.4,0,4.9,0,7.3c0,3,0,6,0,9c1.3-1.2,2.6-2.5,3.9-3.7   c0.6-0.6,1.6-0.6,2.2-0.1c0.8,0.6,0.8,1.8,0.1,2.5c-2.2,2.2-4.5,4.3-6.7,6.5c-0.3,0.3-0.7,0.5-1.1,0.5h-0.3c-0.5,0-0.9-0.3-1.2-0.7   c-2.1-2.1-4.2-4.3-6.2-6.4c-0.6-0.7-0.5-1.9,0.2-2.5c0.5-0.4,1.3-0.4,1.9-0.1c0.2,0.1,0.4,0.4,0.6,0.6c1.1,1.1,2.2,2.3,3.3,3.4   c0-2.8,0-5.6,0-8.4c0-2.5,0-5,0-7.5C54.7,64.2,54.7,63.9,54.8,63.5z"/></g></svg>