<svg xmlns="http://www.w3.org/2000/svg" xmlns:xlink="http://www.w3.org/1999/xlink" version="1.1" x="0px" y="0px" viewBox="0 0 100 125" style="enable-background:new 0 0 100 100;" xml:space="preserve"><g><path d="M39.7,78c-4.4,0.8-8.8,1.7-13.3,2c-2.2,0.1-4.4-0.7-6-2.2c-1.5-1.4-2.4-3.2-2.8-5.2c-2.6,0.1-5.3-1.1-6.9-3.2   c-1.1-1.5-1.9-3.4-1.9-5.3c0-7.7,0-15.3,0-23c0-2.6,1-5.2,2.9-6.9c1.3-1.2,3.1-2,4.9-2.3c5.5-0.8,11-1.8,16.4-2.6   c0.2,1.5,0.3,3,0,4.5c-5.4,0.9-10.8,1.8-16.2,2.6c-2,0.4-3.5,2.4-3.5,4.4c0,7.7,0,15.4,0,23.2c0,1.6,0.8,3.1,2.2,3.9   c0.9,0.5,2,0.4,2.9,0.3c8-1,15.9-2.6,23.8-4.3c4.8-1.1,9.6-2,14.4-2.8c5.1-0.7,10.3-1.3,15.5-1.2c2.3,0,4-2.2,4-4.4   c0-7.1,0-14.1,0-21.2c0-2-1.2-4.2-3.3-4.6c-6.4-0.5-12.8-0.1-19.1,0.7c-0.1-1.5-0.1-3,0.1-4.5c5.7-0.7,11.4-1.2,17.1-0.9   c1.3,0.1,2.7,0.1,3.9,0.5c2,0.7,3.7,2.2,4.6,4.1c0.5,0.9,0.7,1.8,1,2.8c1.2,0.1,2.4,0.1,3.4,0.6c2.4,0.9,4.1,3,4.9,5.5   c0.4,1.1,0.5,2.3,0.5,3.5c0,7,0,14,0,21c0,2.2-0.9,4.4-2.3,6c-1.5,1.8-3.9,2.8-6.2,2.7c-7-0.2-14.1,0.9-21,2.1   C53.1,75.3,46.4,76.8,39.7,78z M42.1,73.1c5.4-1,10.8-2.3,16.2-3.4c7.1-1.3,14.3-2.4,21.5-2.4c0.8,0,1.6,0,2.3-0.3   c1.5-0.7,2.4-2.3,2.4-4c0-7.1,0-14.2,0-21.4c0-1.4-0.5-2.8-1.5-3.7c-0.7-0.7-1.8-0.9-2.7-1c0,6.2,0,12.4,0,18.6   c0,3.3-1.9,6.7-5,8.1c-1.1,0.5-2.3,0.8-3.5,0.7c-6.8-0.1-13.5,0.8-20.2,2c-3.6,0.6-7.2,1.5-10.7,2.2c-6.3,1.4-12.6,2.6-19,3.5   c0.2,0.9,0.6,1.7,1.3,2.4c0.9,0.9,2.2,1.3,3.4,1.1C31.8,75,37,74.1,42.1,73.1z"/></g><path d="M21,63.9c-0.8,0.1-1.8,0.4-2.6,0c-1-0.6-0.8-2.2,0.3-2.6c3.2-0.5,6.5-0.9,9.7-1.5c0.6-0.1,1.3,0,1.7,0.5  c0.6,0.8,0.2,2.1-0.8,2.3C26.5,63.2,23.8,63.5,21,63.9z"/><g><path d="M44.8,55.4c-2.4,0.4-5-0.4-6.8-2.1c-1.3-1.2-2.2-2.8-2.5-4.5c-0.5-2.5,0.3-5.2,2.1-7c1.8-1.9,4.4-2.9,7-2.5   c1.7,0.2,3.3,0.9,4.6,2.1c2.1,2,3,5.2,2.3,8C50.6,52.6,47.8,54.9,44.8,55.4z M44.5,52.5c1.5-0.3,2.9-1.2,3.7-2.6   c0.8-1.5,0.9-3.5,0.1-5c-1-1.9-3.2-3.1-5.3-2.7c-2.8,0.3-5,3-4.6,5.8c0.1,1.5,1,3,2.3,3.8C41.7,52.5,43.2,52.8,44.5,52.5z"/></g><path d="M60.7,36.6c-0.4,0-0.7,0.1-1.1,0c-0.8-0.3-1.2-1.3-0.8-2.1c0.2-0.5,0.7-0.8,1.3-0.8c3.2-0.2,6.4-0.3,9.6-0.2  c0.8,0,1.4,0.7,1.5,1.5c0.1,0.9-0.8,1.6-1.6,1.5C66.6,36.3,63.6,36.3,60.7,36.6z"/><path d="M44.6,35.2c-0.3,0.5-0.9,0.9-1.5,0.8c-0.8-0.1-1.5-0.9-1.5-1.7c0-5.3,0-10.5,0-15.8c-1.3,1.2-2.5,2.4-3.8,3.6  c-0.6,0.6-1.5,0.6-2.2,0.1c-0.8-0.6-0.8-1.8-0.1-2.5c2.1-2.1,4.3-4.1,6.4-6.2c0.6-0.6,1.7-0.8,2.3-0.1c2.1,2.1,4.2,4.2,6.2,6.4  c0.7,0.7,0.6,2.2-0.4,2.7c-0.6,0.2-1.4,0.2-1.8-0.3c-1.2-1.2-2.3-2.5-3.5-3.7c0,5.1,0,10.3,0,15.4C44.8,34.4,44.9,34.8,44.6,35.2z"/></svg>